<?xml version="1.0" standalone="no"?>
<svg xmlns:xlink="http://www.w3.org/1999/xlink" id="wave" style="transform:rotate(0deg); transition: 0.3s" viewBox="0 0 1440 380" version="1.1" xmlns="http://www.w3.org/2000/svg"><defs><linearGradient id="sw-gradient-0" x1="0" x2="0" y1="1" y2="0"><stop stop-color="rgba(243, 106, 62, 1)" offset="0%"/><stop stop-color="rgba(255, 179, 11, 1)" offset="100%"/></linearGradient></defs><path style="transform:translate(0, 0px); opacity:1" fill="url(#sw-gradient-0)" d="M0,76L120,76C240,76,480,76,720,107.7C960,139,1200,203,1440,221.7C1680,241,1920,215,2160,221.7C2400,228,2640,266,2880,247C3120,228,3360,152,3600,139.3C3840,127,4080,177,4320,221.7C4560,266,4800,304,5040,310.3C5280,317,5520,291,5760,259.7C6000,228,6240,190,6480,171C6720,152,6960,152,7200,139.3C7440,127,7680,101,7920,101.3C8160,101,8400,127,8640,158.3C8880,190,9120,228,9360,259.7C9600,291,9840,317,10080,310.3C10320,304,10560,266,10800,259.7C11040,253,11280,279,11520,272.3C11760,266,12000,228,12240,202.7C12480,177,12720,165,12960,177.3C13200,190,13440,228,13680,221.7C13920,215,14160,165,14400,152C14640,139,14880,165,15120,202.7C15360,241,15600,291,15840,272.3C16080,253,16320,165,16560,139.3C16800,114,17040,152,17160,171L17280,190L17280,380L17160,380C17040,380,16800,380,16560,380C16320,380,16080,380,15840,380C15600,380,15360,380,15120,380C14880,380,14640,380,14400,380C14160,380,13920,380,13680,380C13440,380,13200,380,12960,380C12720,380,12480,380,12240,380C12000,380,11760,380,11520,380C11280,380,11040,380,10800,380C10560,380,10320,380,10080,380C9840,380,9600,380,9360,380C9120,380,8880,380,8640,380C8400,380,8160,380,7920,380C7680,380,7440,380,7200,380C6960,380,6720,380,6480,380C6240,380,6000,380,5760,380C5520,380,5280,380,5040,380C4800,380,4560,380,4320,380C4080,380,3840,380,3600,380C3360,380,3120,380,2880,380C2640,380,2400,380,2160,380C1920,380,1680,380,1440,380C1200,380,960,380,720,380C480,380,240,380,120,380L0,380Z"/></svg>